<svg xmlns="http://www.w3.org/2000/svg" viewBox="0 0 178 28"><defs><style>.cls-1{fill:red;}</style></defs><title>logo_img</title><g id="レイヤー_2" data-name="レイヤー 2"><g id="logo"><path d="M1.51,27.54A1.48,1.48,0,0,1,0,26.07a1.47,1.47,0,0,1,1.51-1.43H3.57a4.07,4.07,0,0,0,3-1.2,3.82,3.82,0,0,0,1.24-2.87V1.47a1.56,1.56,0,0,1,3.11,0V20.73a6.35,6.35,0,0,1-2.1,4.79,6.91,6.91,0,0,1-5,2Z"/><path d="M36.29,26.45a1.55,1.55,0,0,1-3.1,0V6.77A6.37,6.37,0,0,1,35.32,2a7.16,7.16,0,0,1,5-2h1.75a6.83,6.83,0,0,1,5,1.93,6.26,6.26,0,0,1,2.06,4.76V8.93c0,3.68-2.29,5.84-7,6.58-1.35.23-3.33.5-5.93.85Zm0-13.07,5.12-.66c3.1-.42,4.65-1.66,4.65-3.75V6.69a3.51,3.51,0,0,0-1.55-2.9,4.49,4.49,0,0,0-2.71-.93H40.56a4.24,4.24,0,0,0-3,1.2,3.84,3.84,0,0,0-1.24,2.86Z"/><path d="M60,27.54a7.07,7.07,0,0,1-5.08-2,6.34,6.34,0,0,1-2.09-4.79V1.47a1.55,1.55,0,0,1,3.1,0v19.1a3.93,3.93,0,0,0,1.24,2.9,4.32,4.32,0,0,0,3,1.17h4.89a1.47,1.47,0,0,1,1.51,1.43,1.51,1.51,0,0,1-1.51,1.47Z"/><path d="M73.86,20.65l-2.33,6.27a1.41,1.41,0,0,1-1.43,1,1.55,1.55,0,0,1-1.63-1.43,2.94,2.94,0,0,1,.08-.54L77.31,1.9A2.73,2.73,0,0,1,80.1,0a2.51,2.51,0,0,1,2.6,1.74L91.5,26a1.51,1.51,0,0,1,.12.58A1.53,1.53,0,0,1,90,28a1.44,1.44,0,0,1-1.44-1l-2.28-6.31Zm11.32-2.9L80.18,3c0-.08-.08-.12-.16-.12s-.11,0-.15.12l-5,14.77Z"/><path d="M106.11,16.46,100,2.32C99.38.77,98.41,0,97.17,0a2.7,2.7,0,0,0-1.82.62,2.18,2.18,0,0,0-.94,1.86v24A1.5,1.5,0,0,0,96,28a1.35,1.35,0,0,0,1.51-1.39V4.22l8.63,20Z"/><path d="M111.19,9.09V26.57a.22.22,0,0,1,0,.08,3,3,0,0,1-.25,1,3.3,3.3,0,0,0,.51-.31,2.28,2.28,0,0,0,.85-1.85V11.65Z"/><path class="cls-1" d="M121.93,23.71V1.39A1.35,1.35,0,0,1,123.44,0,1.52,1.52,0,0,1,125,1.51v24a2.28,2.28,0,0,1-.85,1.85,2.92,2.92,0,0,1-1.82.62c-1.28,0-2.25-.77-2.91-2.32L110.18,4.22V26.57A1.35,1.35,0,0,1,108.67,28a1.5,1.5,0,0,1-1.55-1.51v-24a2.2,2.2,0,0,1,.93-1.86A2.7,2.7,0,0,1,109.87,0c1.24,0,2.21.77,2.87,2.32Z"/><path d="M132.12,26.45a1.56,1.56,0,0,1-3.11,0v-25a1.56,1.56,0,0,1,3.11,0Z"/><path d="M151.75,23.71V1.39A1.35,1.35,0,0,1,153.26,0a1.53,1.53,0,0,1,1.56,1.51v24a2.29,2.29,0,0,1-.86,1.85,2.92,2.92,0,0,1-1.82.62c-1.28,0-2.25-.77-2.91-2.32L140,4.22V26.57A1.35,1.35,0,0,1,138.49,28a1.5,1.5,0,0,1-1.55-1.51v-24a2.2,2.2,0,0,1,.93-1.86A2.74,2.74,0,0,1,139.69,0c1.24,0,2.21.77,2.87,2.32Z"/><path d="M174.86,16.13h-4.19a1.45,1.45,0,1,1,0-2.9h4.81c1.67,0,2.52.77,2.52,2.36V19a9,9,0,1,1-17.95,0V10.09a9.07,9.07,0,0,1,3-6.84A10.26,10.26,0,0,1,170.32.39h4.19A1.48,1.48,0,0,1,176,1.86a1.47,1.47,0,0,1-1.51,1.43h-4.15a7.31,7.31,0,0,0-5.08,1.85,6.34,6.34,0,0,0-2.13,5v8.74a6.06,6.06,0,0,0,1.67,4.3,6,6,0,0,0,8.37,0,5.9,5.9,0,0,0,1.67-4.3Z"/><ellipse class="cls-1" cx="21.89" cy="14.6" rx="5.78" ry="5.77"/></g></g></svg>